<svg id="Layer_1" data-name="Layer 1" xmlns="http://www.w3.org/2000/svg" viewBox="0 0 285.33 73.5"><path d="M28.11.82c1.45,0,4.33,2.88,4.33,4.6-.06.49-11,17.19-11,17.62C25.77,19.54,38.62,7.39,40,7.39s4.56,1.53,4.62,1.9c.24,1.17-6.55,13-7.63,15.6,3.79-3.75,17.18-17.81,19.4-17.81,2,0,5,1.9,5,3.68,0,2.64-18.74,30-18.74,34.51,0,.61.12,1.17.6,1.17,1.26,0,5.1-2.4,5.83-2.95a1.22,1.22,0,0,1,.66-.31c.12,0,.18.06.18.19a.55.55,0,0,1-.18.3C47.57,46.37,44.45,49,42.77,49c-2,0-4-3.37-4-4.36A16.89,16.89,0,0,1,40,38.88C41.51,34.83,54.6,13,54.6,11.26c0-.31-.3-.43-.54-.43C53,11.44,41.87,22.49,34.6,32.44c-3.48,4.72-7,13.14-7.81,13.14-1.26,0-4-2-4-3.69,0-2.51,15-28.85,14.11-28.85-1.2,0-19.46,15.59-26.49,32.66C9.79,47.29,9.37,49,8.65,49c-1.26-.12-3.36-2.27-3.36-5.21,0-5.41,21-36.72,21-39.24a.13.13,0,0,0-.12-.12c-6.73,0-20.06,13.2-22.28,19.4a.34.34,0,0,1-.3.19c-.84,0-2.53-2.28-2.53-3.93C1.08,14.51,22.59.82,28.11.82Z" transform="translate(-1.08 -0.82)"/><path d="M63.24,39.19c-1.44,1.78-7,9.21-8.58,9.21-.91,0-3.43-1.84-3.43-4,0-7.12,11.23-17.25,13.82-17.25,1,0,2.16,1.23,2.94,2.39C69,28.08,69.67,27,70,27c1.68,0,3.06,1.48,3.06,2,0,.06-.06.12-.06.18-1.2,2-7.5,13.27-7.5,15,0,.18,0,.3.18.3,2,0,12.31-9.45,13.21-10.13a.93.93,0,0,1,.48-.12c.18,0,.24.12.24.37,0,.73-12.25,13.5-14.35,13.5-1.2,0-3.79-1.65-3.79-3.37,0-1.05,1.32-3.93,1.92-5.4C63.42,39.25,63.36,39.19,63.24,39.19Zm3.79-8a2.25,2.25,0,0,0-.84-.25c-3.73,0-10.93,10-10.93,13.33,0,.24.06.36.36.36.48,0,4-3.43,7.26-7.36A53.27,53.27,0,0,0,67,31.21Z" transform="translate(-1.08 -0.82)"/><path d="M81.32,24.64c1.26,0,3,1.1,3,2.46,0,1.1-1.62,3.74-2.34,4.91.48-.19,3.25-2.21,3.73-2.4.84,0,3.48,1.78,3.48,3,0,2-6.67,10-6.67,11.73,0,.3.24.73.42.73,1.5,0,9.55-6.5,14.18-10.56a1,1,0,0,1,.6-.24c.12,0,.36.06.36.43,0,.86-13.46,13.63-15.56,13.63-1.5,0-4.2-1.84-4.2-3.93,0-3,6.42-9.76,7.27-13.08-1.39.68-5.35,4.48-6,4.48-1.08,0-2.7-1.47-2.7-2.33,0-1.41,4-7.12,4-8.47C80.9,24.76,81.08,24.64,81.32,24.64Z" transform="translate(-1.08 -0.82)"/><path d="M114,25.5c0,2.09-5.28,11-7,11-.12,0-.18-.06-.18-.25a.45.45,0,0,1,.06-.24c.42-1.35,1.44-4,2.22-6.39a2.65,2.65,0,0,0-1-.37c-2.47-.06-10.57,9.58-10.57,15.6,0,2.33.54,4.17,1.86,4.17,3,0,7-5.28,9.37-9.57a.83.83,0,0,1,.6-.25c.18,0,.3.25.3.55,0,5.53-5.65,11.18-11,11.18a5.93,5.93,0,0,1-5.29-6.2C93.39,35.81,103,26,106.49,26a5.44,5.44,0,0,1,3.3,1.72l.36-1.35c.42-1.66.84-2.64,1.38-2.64C112.37,23.78,114,24.82,114,25.5Z" transform="translate(-1.08 -0.82)"/><path d="M158.8,6.22c1.26-2.27,2.58-4,3.48-4.6a2.35,2.35,0,0,1,1.08-.19c1.26,0,3.12,2.15,3.12,3.26s-8.16,10.56-11.17,20.38c-.06.18-.12.25-.18.25-.54,0-1.62-2.09-1.62-4.12,0-2.7,1.44-7.06,3.3-11h-.6c-6.42,0-22,15.47-22.82,20.63,0,.8,7.93.55,11.35.92a22.44,22.44,0,0,1,9.79,3.07,4.33,4.33,0,0,1,2.1,3.32c0,3.13-17.29,13.63-25,13.63a3.88,3.88,0,0,1-4.15-3.93c0-.86.6-2.77,1.26-2.77s.85,1.54,2.47,1.54c7.26,0,21.56-7.49,21.56-10.19,0-1.29-5.35-1.23-7.87-1.23-3.9,0-8,.37-10.27.37a5.24,5.24,0,0,1-5-5.53c0-10.13,20.84-25.66,26.24-25.66.18,0,.36.06.48.06A4,4,0,0,1,158.8,6.22Z" transform="translate(-1.08 -0.82)"/><path d="M169.54,39.19c-1.44,1.78-7,9.21-8.59,9.21-.9,0-3.42-1.84-3.42-4,0-7.12,11.23-17.25,13.81-17.25,1,0,2.17,1.23,2.95,2.39,1-1.47,1.68-2.52,2-2.52,1.68,0,3.06,1.48,3.06,2,0,.06-.06.12-.06.18-1.2,2-7.5,13.27-7.5,15,0,.18,0,.3.18.3,2,0,12.31-9.45,13.21-10.13a.93.93,0,0,1,.48-.12c.18,0,.24.12.24.37,0,.73-12.25,13.5-14.35,13.5-1.21,0-3.79-1.65-3.79-3.37,0-1.05,1.32-3.93,1.92-5.4C169.72,39.25,169.66,39.19,169.54,39.19Zm3.79-8a2.25,2.25,0,0,0-.84-.25c-3.73,0-10.94,10-10.94,13.33,0,.24.06.36.37.36.48,0,4-3.43,7.26-7.36A54.59,54.59,0,0,0,173.33,31.21Z" transform="translate(-1.08 -0.82)"/><path d="M188.58,26.11c1.14,0,3.6.8,3.6,2.09,0,1.72-3.06,6.45-3.36,6.94l6.73-6.39c.48-.49,1.2-1.41,1.74-1.41,1.44,0,3.9,1.66,3.9,2.64,0,2.15-6.42,13.08-6.42,14a.13.13,0,0,0,.12.12c.54,0,10.81-7.67,13.33-9.58.06-.06.12-.06.24-.06a.34.34,0,0,1,.36.31c0,.49-12.49,13-14.83,13a4.2,4.2,0,0,1-3.61-3.14c0-2,5.29-11.84,5.29-13.07,0-.13-.06-.13-.18-.13-1.32,0-8.41,8.05-11.23,13.82-.66,1.35-1,2.76-1.5,2.76-.73,0-3.37-1.47-3.37-2.64,0-1.84,7.63-13.69,8.35-17,.24-1.17.12-1.79.36-2.15A.7.7,0,0,1,188.58,26.11Z" transform="translate(-1.08 -0.82)"/><path d="M222.33,27c0,1.48-4.38,8.91-6.06,8.91-.12,0-.18-.07-.18-.25a.5.5,0,0,1,.06-.25c.36-1.16.9-2.64,1.38-4.23a3.43,3.43,0,0,0-1.32-.49c-2.05-.06-9,8.78-9,13,0,1.17.48,1.78,1.44,1.78,2.88,0,14-7.55,17.54-10.8a.93.93,0,0,1,.6-.25c.18,0,.3.25.3.55,0,.62-13.94,13.7-18.5,13.7-2,0-5.53-1.91-5.53-5.1,0-6.32,8-16.15,11.54-16.15,1.2,0,2.58,1.05,3.48,1.91a13.68,13.68,0,0,0,.42-1.48c.42-1.66.84-2.64,1.38-2.64C220.71,25.25,222.33,26.3,222.33,27Z" transform="translate(-1.08 -0.82)"/><path d="M240.17,6.53c1.14,0,3.72.92,3.72,2.15,0,2.45-3.9,8.78-9.43,18.42-2.46,4.29-4.5,7.73-5,8.65,5.1-3.68,9.25-8.65,9.55-8.65,1.38,0,3.72,1.47,3.72,2.45,0,1.84-6.91,12.46-7.09,14.74,2.11-.86,10.64-7.56,13.52-9.7.12-.07.18-.13.3-.13s.36.19.36.31c0,.43-12.61,13.45-14.84,13.45-1.8,0-3.36-2.46-3.36-3.44,0-2.52,6.13-12.28,6.13-13.2,0-.13-.12-.13-.18-.13-1.2,0-9.13,7.93-12.14,13.33-.72,1.35-1,4-1.92,4s-3.48-1.29-3.48-2.82c0-2.52,15.85-28,18.8-36.6a13,13,0,0,1,.9-2.76A.7.7,0,0,1,240.17,6.53Z" transform="translate(-1.08 -0.82)"/><path d="M257.23,28.08c.18,0,.35-.06.6-.06.9,0,3.06,2,3.06,3,0,4.29-7.09,7.79-12.13,8.71a9.31,9.31,0,0,0-1.14,3.63c0,1,0,1.9,1.2,1.9,5.16,0,18.13-10.81,18.43-10.81s.43.06.43.31a1.6,1.6,0,0,1-.48,1C265,38,254.76,48.4,249.3,48.4A5.31,5.31,0,0,1,244,43.06c0-6.26,9.31-16.15,11.53-16.15A2.63,2.63,0,0,1,257.23,28.08Zm-7.45,9.82c3.78-1.6,7.38-3.74,7.38-6.26a4.58,4.58,0,0,0-.42-1.72A26.18,26.18,0,0,0,249.78,37.9Z" transform="translate(-1.08 -0.82)"/><path d="M274,50h1.32c5.95,0,10.57,1.65,11.11,4.36-1.62-.74-5.7-1.6-11.59-1.6a18.15,18.15,0,0,0-2.58.12c-3.73,5.71-9.43,12-11.47,12-1.75,0-7.15-4.73-7.15-8.48,0-1.9,6.67-5.22,16.28-6.2a10.53,10.53,0,0,0,1.56-4.3,1.28,1.28,0,0,0-1.14-1.35c-.85.62-2.23,2.09-2.59,2.09s-2.1-1-2.1-1.78c0-1.9,5.59-7.43,9.91-13.32-3.18,1.23-7.75,6-8.83,6-.84,0-2.82-1.59-2.82-2.45,0-2.58,5.23-11.11,6.13-11.11s3.42,1.35,3.42,2.21c0,.61-4.32,6.63-5.05,7.73,1.87-1.29,6.73-4.6,9.73-6.26a.93.93,0,0,1,.48-.12c1,0,2.83,1.16,2.83,2.27s-7.81,8.78-10.93,12c2.16,0,5.22,1.41,5.22,3.38A12.49,12.49,0,0,1,274,50Zm-6.25,3.62c-5.64,1.35-10,3.93-10,5,0,.86,1.92,2.76,3.31,2.76C261.67,61.35,265,57.55,267.73,53.62Z" transform="translate(-1.08 -0.82)"/><path d="M14.41,70.24S53.65,49.85,245.88,53.93c0,0,3.66.68,3,3.74s-6.65,4.75-10,4.41S109.53,48.83,12.41,74.32Z" transform="translate(-1.08 -0.82)"/></svg>